{
    "asset" : {
        "generator" : "Khronos glTF Blender I/O v1.2.75",
        "version" : "2.0"
    },
    "scene" : 0,
    "scenes" : [
        {
            "name" : "Scene",
            "nodes" : [
                0,
                1,
                2,
                3,
                4,
                5,
                6,
                7,
                8
            ]
        }
    ],
    "nodes" : [
        {
            "mesh" : 0,
            "name" : "LeftLeg",
            "rotation" : [
                0.7071068286895752,
                0,
                0,
                0.7071067094802856
            ],
            "scale" : [
                0.011300511658191681,
                0.011300511658191681,
                0.011300511658191681
            ],
            "translation" : [
                0.6088142395019531,
                0.6075223684310913,
                1.26548433303833
            ]
        },
        {
            "mesh" : 1,
            "name" : "RightArm",
            "rotation" : [
                0.7071068286895752,
                0,
                0,
                0.7071067094802856
            ],
            "scale" : [
                0.011300511658191681,
                0.011300511658191681,
                0.011300511658191681
            ],
            "translation" : [
                0.6088142395019531,
                0.6075223684310913,
                1.26548433303833
            ]
        },
        {
            "mesh" : 2,
            "name" : "Stamp",
            "rotation" : [
                0.7071068286895752,
                0,
                0,
                0.7071067094802856
            ],
            "scale" : [
                0.011300511658191681,
                0.011300511658191681,
                0.011300511658191681
            ],
            "translation" : [
                0.6088142395019531,
                0.6075223684310913,
                1.26548433303833
            ]
        },
        {
            "mesh" : 3,
            "name" : "LeftArm",
            "rotation" : [
                0.7071068286895752,
                0,
                0,
                0.7071067094802856
            ],
            "scale" : [
                0.011300511658191681,
                0.011300511658191681,
                0.011300511658191681
            ],
            "translation" : [
                0.6088142395019531,
                0.6075223684310913,
                1.26548433303833
            ]
        },
        {
            "mesh" : 4,
            "name" : "Head",
            "rotation" : [
                0.7071068286895752,
                0,
                0,
                0.7071067094802856
            ],
            "scale" : [
                0.011300511658191681,
                0.011300511658191681,
                0.011300511658191681
            ],
            "translation" : [
                0.6088142395019531,
                0.6075223684310913,
                1.26548433303833
            ]
        },
        {
            "mesh" : 5,
            "name" : "Chest_Belly",
            "rotation" : [
                0.7071068286895752,
                0,
                0,
                0.7071067094802856
            ],
            "scale" : [
                0.011300511658191681,
                0.011300511658191681,
                0.011300511658191681
            ],
            "translation" : [
                0.6088142395019531,
                0.6075223684310913,
                1.26548433303833
            ]
        },
        {
            "mesh" : 6,
            "name" : "RightLeg",
            "rotation" : [
                0.7071068286895752,
                0,
                0,
                0.7071067094802856
            ],
            "scale" : [
                0.011300511658191681,
                0.011300511658191681,
                0.011300511658191681
            ],
            "translation" : [
                0.6088142395019531,
                0.6075223684310913,
                1.26548433303833
            ]
        },
        {
            "name" : "Lamp",
            "rotation" : [
                0.16907575726509094,
                0.7558803558349609,
                -0.27217137813568115,
                0.570947527885437
            ],
            "scale" : [
                0.011300507932901382,
                0.011300511658191681,
                0.011300511658191681
            ],
            "translation" : [
                0.6548779010772705,
                0.674238920211792,
                1.254122257232666
            ]
        },
        {
            "name" : "Camera",
            "rotation" : [
                0.5527009963989258,
                0.13506339490413666,
                -0.0998489111661911,
                0.8162779211997986
            ],
            "translation" : [
                1.1866775751113892,
                1.6854767799377441,
                2.6945536136627197
            ]
        }
    ],
    "materials" : [
        {
            "doubleSided" : true,
            "name" : "wire_177027088",
            "pbrMetallicRoughness" : {}
        },
        {
            "doubleSided" : true,
            "name" : "wire_027177027",
            "pbrMetallicRoughness" : {}
        },
        {
            "doubleSided" : true,
            "name" : "wire_214229166",
            "pbrMetallicRoughness" : {}
        },
        {
            "doubleSided" : true,
            "name" : "wire_198224087",
            "pbrMetallicRoughness" : {}
        }
    ],
    "meshes" : [
        {
            "name" : "LeftLeg",
            "primitives" : [
                {
                    "attributes" : {
                        "POSITION" : 0,
                        "NORMAL" : 1,
                        "TEXCOORD_0" : 2
                    },
                    "indices" : 3,
                    "material" : 0
                }
            ]
        },
        {
            "name" : "RightArm",
            "primitives" : [
                {
                    "attributes" : {
                        "POSITION" : 4,
                        "NORMAL" : 5,
                        "TEXCOORD_0" : 6
                    },
                    "indices" : 7,
                    "material" : 1
                }
            ]
        },
        {
            "name" : "Stamp",
            "primitives" : [
                {
                    "attributes" : {
                        "POSITION" : 8,
                        "NORMAL" : 9,
                        "TEXCOORD_0" : 10
                    },
                    "indices" : 11,
                    "material" : 2
                }
            ]
        },
        {
            "name" : "LeftArm",
            "primitives" : [
                {
                    "attributes" : {
                        "POSITION" : 12,
                        "NORMAL" : 13,
                        "TEXCOORD_0" : 14
                    },
                    "indices" : 15,
                    "material" : 1
                }
            ]
        },
        {
            "name" : "Head",
            "primitives" : [
                {
                    "attributes" : {
                        "POSITION" : 16,
                        "NORMAL" : 17,
                        "TEXCOORD_0" : 18
                    },
                    "indices" : 19,
                    "material" : 3
                }
            ]
        },
        {
            "name" : "Chest_Belly",
            "primitives" : [
                {
                    "attributes" : {
                        "POSITION" : 20,
                        "NORMAL" : 21,
                        "TEXCOORD_0" : 22
                    },
                    "indices" : 23,
                    "material" : 3
                }
            ]
        },
        {
            "name" : "RightLeg",
            "primitives" : [
                {
                    "attributes" : {
                        "POSITION" : 24,
                        "NORMAL" : 25,
                        "TEXCOORD_0" : 26
                    },
                    "indices" : 27,
                    "material" : 0
                }
            ]
        }
    ],
    "accessors" : [
        {
            "bufferView" : 0,
            "componentType" : 5126,
            "count" : 1018,
            "max" : [
                17.034299850463867,
                5.111999988555908,
                0.7267000079154968
            ],
            "min" : [
                0.18140000104904175,
                -11.690799713134766,
                -20.562599182128906
            ],
            "type" : "VEC3"
        },
        {
            "bufferView" : 1,
            "componentType" : 5126,
            "count" : 1018,
            "type" : "VEC3"
        },
        {
            "bufferView" : 2,
            "componentType" : 5126,
            "count" : 1018,
            "type" : "VEC2"
        },
        {
            "bufferView" : 3,
            "componentType" : 5123,
            "count" : 1524,
            "type" : "SCALAR"
        },
        {
            "bufferView" : 4,
            "componentType" : 5126,
            "count" : 1292,
            "max" : [
                -8.73449993133545,
                5.337399959564209,
                -18.509700775146484
            ],
            "min" : [
                -33.49440002441406,
                -18.1481990814209,
                -65.94709777832031
            ],
            "type" : "VEC3"
        },
        {
            "bufferView" : 5,
            "componentType" : 5126,
            "count" : 1292,
            "type" : "VEC3"
        },
        {
            "bufferView" : 6,
            "componentType" : 5126,
            "count" : 1292,
            "type" : "VEC2"
        },
        {
            "bufferView" : 7,
            "componentType" : 5123,
            "count" : 1938,
            "type" : "SCALAR"
        },
        {
            "bufferView" : 8,
            "componentType" : 5126,
            "count" : 580,
            "max" : [
                9.388999938964844,
                7.745800018310547,
                -58.52560043334961
            ],
            "min" : [
                5.3394999504089355,
                5.383900165557861,
                -62.63209915161133
            ],
            "type" : "VEC3"
        },
        {
            "bufferView" : 9,
            "componentType" : 5126,
            "count" : 580,
            "type" : "VEC3"
        },
        {
            "bufferView" : 10,
            "componentType" : 5126,
            "count" : 580,
            "type" : "VEC2"
        },
        {
            "bufferView" : 11,
            "componentType" : 5123,
            "count" : 900,
            "type" : "SCALAR"
        },
        {
            "bufferView" : 12,
            "componentType" : 5126,
            "count" : 1292,
            "max" : [
                35.89070129394531,
                5.337399959564209,
                -18.509700775146484
            ],
            "min" : [
                11.130800247192383,
                -18.1481990814209,
                -65.94709777832031
            ],
            "type" : "VEC3"
        },
        {
            "bufferView" : 13,
            "componentType" : 5126,
            "count" : 1292,
            "type" : "VEC3"
        },
        {
            "bufferView" : 14,
            "componentType" : 5126,
            "count" : 1292,
            "type" : "VEC2"
        },
        {
            "bufferView" : 15,
            "componentType" : 5123,
            "count" : 1938,
            "type" : "SCALAR"
        },
        {
            "bufferView" : 16,
            "componentType" : 5126,
            "count" : 314,
            "max" : [
                8.35949993133545,
                5.521599769592285,
                -67.51290130615234
            ],
            "min" : [
                -6.86929988861084,
                -9.912799835205078,
                -77.41790008544922
            ],
            "type" : "VEC3"
        },
        {
            "bufferView" : 17,
            "componentType" : 5126,
            "count" : 314,
            "type" : "VEC3"
        },
        {
            "bufferView" : 18,
            "componentType" : 5126,
            "count" : 314,
            "type" : "VEC2"
        },
        {
            "bufferView" : 19,
            "componentType" : 5123,
            "count" : 504,
            "type" : "SCALAR"
        },
        {
            "bufferView" : 20,
            "componentType" : 5126,
            "count" : 478,
            "max" : [
                21.928199768066406,
                21.180299758911133,
                -10.876899719238281
            ],
            "min" : [
                -20.32110023498535,
                -25.752700805664062,
                -70.7218017578125
            ],
            "type" : "VEC3"
        },
        {
            "bufferView" : 21,
            "componentType" : 5126,
            "count" : 478,
            "type" : "VEC3"
        },
        {
            "bufferView" : 22,
            "componentType" : 5126,
            "count" : 478,
            "type" : "VEC2"
        },
        {
            "bufferView" : 23,
            "componentType" : 5123,
            "count" : 852,
            "type" : "SCALAR"
        },
        {
            "bufferView" : 24,
            "componentType" : 5126,
            "count" : 1018,
            "max" : [
                2.214900016784668,
                5.111999988555908,
                0.7267000079154968
            ],
            "min" : [
                -14.637999534606934,
                -11.690799713134766,
                -20.562599182128906
            ],
            "type" : "VEC3"
        },
        {
            "bufferView" : 25,
            "componentType" : 5126,
            "count" : 1018,
            "type" : "VEC3"
        },
        {
            "bufferView" : 26,
            "componentType" : 5126,
            "count" : 1018,
            "type" : "VEC2"
        },
        {
            "bufferView" : 27,
            "componentType" : 5123,
            "count" : 1524,
            "type" : "SCALAR"
        }
    ],
    "bufferViews" : [
        {
            "buffer" : 0,
            "byteLength" : 12216,
            "byteOffset" : 0
        },
        {
            "buffer" : 0,
            "byteLength" : 12216,
            "byteOffset" : 12216
        },
        {
            "buffer" : 0,
            "byteLength" : 8144,
            "byteOffset" : 24432
        },
        {
            "buffer" : 0,
            "byteLength" : 3048,
            "byteOffset" : 32576
        },
        {
            "buffer" : 0,
            "byteLength" : 15504,
            "byteOffset" : 35624
        },
        {
            "buffer" : 0,
            "byteLength" : 15504,
            "byteOffset" : 51128
        },
        {
            "buffer" : 0,
            "byteLength" : 10336,
            "byteOffset" : 66632
        },
        {
            "buffer" : 0,
            "byteLength" : 3876,
            "byteOffset" : 76968
        },
        {
            "buffer" : 0,
            "byteLength" : 6960,
            "byteOffset" : 80844
        },
        {
            "buffer" : 0,
            "byteLength" : 6960,
            "byteOffset" : 87804
        },
        {
            "buffer" : 0,
            "byteLength" : 4640,
            "byteOffset" : 94764
        },
        {
            "buffer" : 0,
            "byteLength" : 1800,
            "byteOffset" : 99404
        },
        {
            "buffer" : 0,
            "byteLength" : 15504,
            "byteOffset" : 101204
        },
        {
            "buffer" : 0,
            "byteLength" : 15504,
            "byteOffset" : 116708
        },
        {
            "buffer" : 0,
            "byteLength" : 10336,
            "byteOffset" : 132212
        },
        {
            "buffer" : 0,
            "byteLength" : 3876,
            "byteOffset" : 142548
        },
        {
            "buffer" : 0,
            "byteLength" : 3768,
            "byteOffset" : 146424
        },
        {
            "buffer" : 0,
            "byteLength" : 3768,
            "byteOffset" : 150192
        },
        {
            "buffer" : 0,
            "byteLength" : 2512,
            "byteOffset" : 153960
        },
        {
            "buffer" : 0,
            "byteLength" : 1008,
            "byteOffset" : 156472
        },
        {
            "buffer" : 0,
            "byteLength" : 5736,
            "byteOffset" : 157480
        },
        {
            "buffer" : 0,
            "byteLength" : 5736,
            "byteOffset" : 163216
        },
        {
            "buffer" : 0,
            "byteLength" : 3824,
            "byteOffset" : 168952
        },
        {
            "buffer" : 0,
            "byteLength" : 1704,
            "byteOffset" : 172776
        },
        {
            "buffer" : 0,
            "byteLength" : 12216,
            "byteOffset" : 174480
        },
        {
            "buffer" : 0,
            "byteLength" : 12216,
            "byteOffset" : 186696
        },
        {
            "buffer" : 0,
            "byteLength" : 8144,
            "byteOffset" : 198912
        },
        {
            "buffer" : 0,
            "byteLength" : 3048,
            "byteOffset" : 207056
        }
    ],
    "buffers" : [
        {
            "byteLength" : 210104,
            "uri" : "data:application/octet-stream;base64,"
        }
    ]
}
